<?xml version="1.0" encoding="UTF-8" standalone="no"?>
<!-- Generator: Adobe Illustrator 16.0.0, SVG Export Plug-In . SVG Version: 6.00 Build 0)  -->

<svg
   xmlns:dc="http://purl.org/dc/elements/1.1/"
   xmlns:cc="http://creativecommons.org/ns#"
   xmlns:rdf="http://www.w3.org/1999/02/22-rdf-syntax-ns#"
   xmlns:svg="http://www.w3.org/2000/svg"
   xmlns="http://www.w3.org/2000/svg"
   xmlns:sodipodi="http://sodipodi.sourceforge.net/DTD/sodipodi-0.dtd"
   xmlns:inkscape="http://www.inkscape.org/namespaces/inkscape"
   version="1.1"
   x="0px"
   y="0px"
   width="138.45021mm"
   height="25.502346mm"
   viewBox="0 0 490.57159 90.362641"
   xml:space="preserve"
   id="svg14370"
   inkscape:version="0.91 r13725"
   sodipodi:docname="black-sash-logo.svg"><metadata
     id="metadata19862"><rdf:RDF><cc:Work
         rdf:about=""><dc:format>image/svg+xml</dc:format><dc:type
           rdf:resource="http://purl.org/dc/dcmitype/StillImage" /><dc:title></dc:title></cc:Work></rdf:RDF></metadata><defs
     id="defs19860" /><sodipodi:namedview
     pagecolor="#ffffff"
     bordercolor="#666666"
     borderopacity="1"
     objecttolerance="10"
     gridtolerance="10"
     guidetolerance="10"
     inkscape:pageopacity="0"
     inkscape:pageshadow="2"
     inkscape:window-width="1440"
     inkscape:window-height="851"
     id="namedview19858"
     showgrid="false"
     inkscape:zoom="0.70412097"
     inkscape:cx="348.46229"
     inkscape:cy="-131.10521"
     inkscape:window-x="0"
     inkscape:window-y="0"
     inkscape:window-maximized="1"
     inkscape:current-layer="g36215"
     units="mm"
     fit-margin-top="0"
     fit-margin-left="0"
     fit-margin-right="0"
     fit-margin-bottom="0" /><g
     id="Layer_2"
     class="st54"
     style="display:none"
     transform="translate(-0.46284449,593.64861)"><rect
       x="3597.395"
       y="428.01801"
       class="st11"
       width="803.12097"
       height="330.82401"
       id="rect14375"
       style="display:inline;fill:none;stroke:#000000;stroke-width:0.98049998;stroke-miterlimit:10" /><rect
       x="3597.395"
       y="817.42401"
       class="st11"
       width="803.12097"
       height="330.823"
       id="rect14377"
       style="display:inline;fill:none;stroke:#000000;stroke-width:0.98049998;stroke-miterlimit:10" /><rect
       x="3597.395"
       y="1206.8311"
       class="st11"
       width="803.12097"
       height="330.82401"
       id="rect14379"
       style="display:inline;fill:none;stroke:#000000;stroke-width:0.98049998;stroke-miterlimit:10" /><rect
       x="3597.395"
       y="1596.238"
       class="st11"
       width="803.12097"
       height="330.823"
       id="rect14381"
       style="display:inline;fill:none;stroke:#000000;stroke-width:0.98049998;stroke-miterlimit:10" /><rect
       x="3597.395"
       y="1985.646"
       class="st11"
       width="803.12097"
       height="330.823"
       id="rect14383"
       style="display:inline;fill:none;stroke:#000000;stroke-width:0.98049998;stroke-miterlimit:10" /><rect
       x="4826.2749"
       y="510.17599"
       class="st39"
       width="354.72699"
       height="483.19199"
       id="rect14385"
       style="display:inline;fill:none;stroke:#000000;stroke-width:1.08019996;stroke-miterlimit:10" /><rect
       x="4826.2749"
       y="1058.62"
       class="st39"
       width="354.72699"
       height="483.19"
       id="rect14387"
       style="display:inline;fill:none;stroke:#000000;stroke-width:1.08019996;stroke-miterlimit:10" /><rect
       x="4826.2749"
       y="1607.064"
       class="st39"
       width="354.72699"
       height="483.19101"
       id="rect14389"
       style="display:inline;fill:none;stroke:#000000;stroke-width:1.08019996;stroke-miterlimit:10" /><rect
       x="4451.1548"
       y="510.17599"
       class="st39"
       width="354.72699"
       height="483.19199"
       id="rect14391"
       style="display:inline;fill:none;stroke:#000000;stroke-width:1.08019996;stroke-miterlimit:10" /><rect
       x="4451.1548"
       y="1058.62"
       class="st39"
       width="354.72699"
       height="483.19"
       id="rect14393"
       style="display:inline;fill:none;stroke:#000000;stroke-width:1.08019996;stroke-miterlimit:10" /><rect
       x="4451.1548"
       y="1607.064"
       class="st39"
       width="354.72699"
       height="483.19101"
       id="rect14395"
       style="display:inline;fill:none;stroke:#000000;stroke-width:1.08019996;stroke-miterlimit:10" /><rect
       x="5474.3452"
       y="395.66299"
       class="st52"
       width="492.27899"
       height="365.77301"
       id="rect14397"
       style="display:inline;fill:none;stroke:#000000;stroke-width:0.8215;stroke-miterlimit:10" /><rect
       x="6019.0371"
       y="395.66299"
       class="st52"
       width="492.27899"
       height="365.77301"
       id="rect14399"
       style="display:inline;fill:none;stroke:#000000;stroke-width:0.8215;stroke-miterlimit:10" /><rect
       x="6563.9268"
       y="395.66299"
       class="st52"
       width="492.27899"
       height="365.77301"
       id="rect14401"
       style="display:inline;fill:none;stroke:#000000;stroke-width:0.8215;stroke-miterlimit:10" /><rect
       x="5474.3452"
       y="794.69501"
       class="st52"
       width="492.27899"
       height="365.77301"
       id="rect14403"
       style="display:inline;fill:none;stroke:#000000;stroke-width:0.8215;stroke-miterlimit:10" /><rect
       x="6019.0371"
       y="794.69501"
       class="st52"
       width="492.27899"
       height="365.77301"
       id="rect14405"
       style="display:inline;fill:none;stroke:#000000;stroke-width:0.8215;stroke-miterlimit:10" /><rect
       x="6563.9268"
       y="794.69501"
       class="st52"
       width="492.27899"
       height="365.77301"
       id="rect14407"
       style="display:inline;fill:none;stroke:#000000;stroke-width:0.8215;stroke-miterlimit:10" /><rect
       x="5474.3452"
       y="1225.469"
       class="st24"
       width="366.43799"
       height="307.10501"
       id="rect14409"
       style="display:inline;fill:none;stroke:#000000;stroke-width:0.6494;stroke-miterlimit:10" /><rect
       x="5879.4849"
       y="1225.469"
       class="st24"
       width="366.43799"
       height="307.10501"
       id="rect14411"
       style="display:inline;fill:none;stroke:#000000;stroke-width:0.6494;stroke-miterlimit:10" /><rect
       x="6284.627"
       y="1225.469"
       class="st24"
       width="366.43799"
       height="307.10501"
       id="rect14413"
       style="display:inline;fill:none;stroke:#000000;stroke-width:0.6494;stroke-miterlimit:10" /><rect
       x="6689.7681"
       y="1225.469"
       class="st24"
       width="366.43799"
       height="307.10501"
       id="rect14415"
       style="display:inline;fill:none;stroke:#000000;stroke-width:0.6494;stroke-miterlimit:10" /><rect
       x="5474.3452"
       y="1556.8979"
       class="st24"
       width="366.43799"
       height="307.10501"
       id="rect14417"
       style="display:inline;fill:none;stroke:#000000;stroke-width:0.6494;stroke-miterlimit:10" /><rect
       x="5879.4849"
       y="1556.8979"
       class="st24"
       width="366.43799"
       height="307.10501"
       id="rect14419"
       style="display:inline;fill:none;stroke:#000000;stroke-width:0.6494;stroke-miterlimit:10" /><rect
       x="6284.627"
       y="1556.8979"
       class="st24"
       width="366.43799"
       height="307.10501"
       id="rect14421"
       style="display:inline;fill:none;stroke:#000000;stroke-width:0.6494;stroke-miterlimit:10" /><rect
       x="6689.7681"
       y="1556.8979"
       class="st24"
       width="366.43799"
       height="307.10501"
       id="rect14423"
       style="display:inline;fill:none;stroke:#000000;stroke-width:0.6494;stroke-miterlimit:10" /><rect
       x="5474.3452"
       y="1888.243"
       class="st24"
       width="366.43799"
       height="307.10501"
       id="rect14425"
       style="display:inline;fill:none;stroke:#000000;stroke-width:0.6494;stroke-miterlimit:10" /><rect
       x="5879.4849"
       y="1888.243"
       class="st24"
       width="366.43799"
       height="307.10501"
       id="rect14427"
       style="display:inline;fill:none;stroke:#000000;stroke-width:0.6494;stroke-miterlimit:10" /><rect
       x="6284.627"
       y="1888.243"
       class="st24"
       width="366.43799"
       height="307.10501"
       id="rect14429"
       style="display:inline;fill:none;stroke:#000000;stroke-width:0.6494;stroke-miterlimit:10" /><rect
       x="6689.7681"
       y="1888.243"
       class="st24"
       width="366.43799"
       height="307.10501"
       id="rect14431"
       style="display:inline;fill:none;stroke:#000000;stroke-width:0.6494;stroke-miterlimit:10" /><g
       class="st34"
       id="g14433"
       style="display:inline"><rect
         x="5563.6938"
         y="5448.1089"
         class="st27"
         width="492.27899"
         height="365.77301"
         id="rect14435"
         style="fill:none;stroke:#000000;stroke-width:0.8215;stroke-miterlimit:10" /><rect
         x="6108.3872"
         y="5448.1089"
         class="st27"
         width="492.27899"
         height="365.77301"
         id="rect14437"
         style="fill:none;stroke:#000000;stroke-width:0.8215;stroke-miterlimit:10" /><rect
         x="6653.2759"
         y="5448.1089"
         class="st27"
         width="492.27899"
         height="365.77301"
         id="rect14439"
         style="fill:none;stroke:#000000;stroke-width:0.8215;stroke-miterlimit:10" /><rect
         x="5563.6938"
         y="5847.1421"
         class="st27"
         width="492.27899"
         height="365.77301"
         id="rect14441"
         style="fill:none;stroke:#000000;stroke-width:0.8215;stroke-miterlimit:10" /><rect
         x="6108.3872"
         y="5847.1421"
         class="st27"
         width="492.27899"
         height="365.77301"
         id="rect14443"
         style="fill:none;stroke:#000000;stroke-width:0.8215;stroke-miterlimit:10" /><rect
         x="6653.2759"
         y="5847.1421"
         class="st27"
         width="492.27899"
         height="365.77301"
         id="rect14445"
         style="fill:none;stroke:#000000;stroke-width:0.8215;stroke-miterlimit:10" /><rect
         x="5563.6938"
         y="6277.915"
         class="st6"
         width="366.43799"
         height="307.10501"
         id="rect14447"
         style="fill:none;stroke:#000000;stroke-width:0.6494;stroke-miterlimit:10" /><rect
         x="5968.835"
         y="6277.915"
         class="st6"
         width="366.43799"
         height="307.10501"
         id="rect14449"
         style="fill:none;stroke:#000000;stroke-width:0.6494;stroke-miterlimit:10" /><rect
         x="6373.9771"
         y="6277.915"
         class="st6"
         width="366.43799"
         height="307.10501"
         id="rect14451"
         style="fill:none;stroke:#000000;stroke-width:0.6494;stroke-miterlimit:10" /><rect
         x="6779.1172"
         y="6277.915"
         class="st6"
         width="366.43799"
         height="307.10501"
         id="rect14453"
         style="fill:none;stroke:#000000;stroke-width:0.6494;stroke-miterlimit:10" /><rect
         x="5563.6938"
         y="6609.3462"
         class="st6"
         width="366.43799"
         height="307.104"
         id="rect14455"
         style="fill:none;stroke:#000000;stroke-width:0.6494;stroke-miterlimit:10" /><rect
         x="5968.835"
         y="6609.3462"
         class="st6"
         width="366.43799"
         height="307.104"
         id="rect14457"
         style="fill:none;stroke:#000000;stroke-width:0.6494;stroke-miterlimit:10" /><rect
         x="6373.9771"
         y="6609.3462"
         class="st6"
         width="366.43799"
         height="307.104"
         id="rect14459"
         style="fill:none;stroke:#000000;stroke-width:0.6494;stroke-miterlimit:10" /><rect
         x="6779.1172"
         y="6609.3462"
         class="st6"
         width="366.43799"
         height="307.104"
         id="rect14461"
         style="fill:none;stroke:#000000;stroke-width:0.6494;stroke-miterlimit:10" /><rect
         x="5563.6938"
         y="6940.689"
         class="st6"
         width="366.43799"
         height="307.10501"
         id="rect14463"
         style="fill:none;stroke:#000000;stroke-width:0.6494;stroke-miterlimit:10" /><rect
         x="5968.835"
         y="6940.689"
         class="st6"
         width="366.43799"
         height="307.10501"
         id="rect14465"
         style="fill:none;stroke:#000000;stroke-width:0.6494;stroke-miterlimit:10" /><rect
         x="6373.9771"
         y="6940.689"
         class="st6"
         width="366.43799"
         height="307.10501"
         id="rect14467"
         style="fill:none;stroke:#000000;stroke-width:0.6494;stroke-miterlimit:10" /><rect
         x="6779.1172"
         y="6940.689"
         class="st6"
         width="366.43799"
         height="307.10501"
         id="rect14469"
         style="fill:none;stroke:#000000;stroke-width:0.6494;stroke-miterlimit:10" /></g></g><g
     id="g36215"
     transform="translate(31.424603,-35.256323)"><path
       transform="matrix(1.2273033,0,0,1.2273033,-11.250727,63.129029)"
       style="fill:#ffffff"
       inkscape:connector-curvature="0"
       id="path14476"
       d="m 1247.44,107.22 2.72,0 13.25,16.094 13.25,-16.094 2.72,0 0,34.734 -2.72,0 0,-30.966 -13.25,16.319 -13.25,-16.319 0,30.966 -2.72,0 0,-34.734 z"
       class="st29" /><path
       transform="matrix(1.2273033,0,0,1.2273033,-11.250727,63.129029)"
       style="fill:#ffffff"
       inkscape:connector-curvature="0"
       id="path14478"
       d="m 1283.597,141.954 15.97,-34.909 1.473,0 15.97,34.909 -2.795,0 -5.515,-11.952 -16.818,0 -5.489,11.952 -2.796,0 z m 9.307,-14.198 14.822,0 -7.461,-16.344 -7.361,16.344 z"
       class="st29" /><path
       transform="matrix(1.2273033,0,0,1.2273033,-11.250727,63.129029)"
       style="fill:#ffffff"
       inkscape:connector-curvature="0"
       id="path14480"
       d="m 1321.375,107.22 2.72,0 0,34.734 -2.72,0 0,-34.734 z m 2.72,17.367 16.568,-17.367 3.394,0 -16.493,17.367 18.065,17.367 -3.419,0 -18.115,-17.367 z"
       class="st29" /><path
       transform="matrix(1.2273033,0,0,1.2273033,-11.250727,63.129029)"
       style="fill:#ffffff"
       inkscape:connector-curvature="0"
       id="path14482"
       d="m 1348.573,107.22 2.72,0 0,34.734 -2.72,0 0,-34.734 z"
       class="st29" /><path
       transform="matrix(1.2273033,0,0,1.2273033,-11.250727,63.129029)"
       style="fill:#ffffff"
       inkscape:connector-curvature="0"
       id="path14484"
       d="m 1359.203,107.22 2.295,0 26.45,30.392 0,-30.392 2.72,0 0,34.734 -2.246,0 -26.499,-30.392 0,30.392 -2.72,0 0,-34.734 z"
       class="st29" /><path
       transform="matrix(1.2273033,0,0,1.2273033,-11.250727,63.129029)"
       style="fill:#ffffff"
       inkscape:connector-curvature="0"
       id="path14486"
       d="m 1418.54,128.455 0,-2.246 9.906,0 0,13.3 c -4.242,1.996 -8.351,2.994 -12.326,2.994 -5.439,0 -9.956,-1.655 -13.55,-4.965 -3.593,-3.31 -5.39,-7.627 -5.39,-12.951 0,-5.256 1.771,-9.557 5.315,-12.9 3.56,-3.344 8.018,-5.016 13.374,-5.016 1.714,0 3.493,0.225 5.34,0.674 1.863,0.433 4.009,1.189 6.438,2.271 l 0,3.044 c -4.159,-2.329 -8.252,-3.493 -12.277,-3.493 -4.375,0 -8.019,1.397 -10.929,4.192 -2.895,2.795 -4.342,6.538 -4.342,11.229 0,4.675 1.521,8.418 4.566,11.229 3.044,2.794 6.861,4.192 11.453,4.192 3.543,0 6.745,-0.724 9.606,-2.171 l 0,-9.382 -7.184,0 z"
       class="st29" /><path
       transform="matrix(1.2273033,0,0,1.2273033,-11.250727,63.129029)"
       style="fill:#ffffff"
       inkscape:connector-curvature="0"
       id="path14488"
       d="m 1445.788,141.954 15.97,-34.909 1.473,0 15.97,34.909 -2.795,0 -5.515,-11.952 -16.818,0 -5.489,11.952 -2.796,0 z m 9.308,-14.198 14.822,0 -7.461,-16.344 -7.361,16.344 z"
       class="st29" /><path
       transform="matrix(1.2273033,0,0,1.2273033,-11.250727,63.129029)"
       style="fill:#ffffff"
       inkscape:connector-curvature="0"
       id="path14490"
       d="m 1483.691,107.22 2.72,0 0,32.488 17.167,0 0,2.246 -19.887,0 0,-34.734 z"
       class="st29" /><path
       transform="matrix(1.2273033,0,0,1.2273033,-11.250727,63.129029)"
       style="fill:#ffffff"
       inkscape:connector-curvature="0"
       id="path14492"
       d="m 1507.671,107.22 2.72,0 0,32.488 17.167,0 0,2.246 -19.887,0 0,-34.734 z"
       class="st29" /><path
       transform="matrix(1.2273033,0,0,1.2273033,-11.250727,63.129029)"
       style="fill:#ffffff"
       inkscape:connector-curvature="0"
       id="path14494"
       d="m 1258.694,190.223 12.401,-29.344 2.72,0 -14.771,35.108 -0.774,0 -14.771,-35.108 2.72,0 12.475,29.344 z"
       class="st29" /><path
       transform="matrix(1.2273033,0,0,1.2273033,-11.250727,63.129029)"
       style="fill:#ffffff"
       inkscape:connector-curvature="0"
       id="path14496"
       d="m 1276.485,178.245 c 0,-5.256 1.83,-9.557 5.489,-12.9 3.66,-3.344 7.927,-5.016 12.801,-5.016 5.257,0 9.665,1.755 13.225,5.265 3.56,3.494 5.34,7.71 5.34,12.651 0,4.958 -1.796,9.183 -5.39,12.676 -3.576,3.493 -7.927,5.24 -13.05,5.24 -4.907,0 -9.208,-1.672 -12.9,-5.015 -3.677,-3.36 -5.515,-7.661 -5.515,-12.901 z m 2.919,-0.025 c 0,4.525 1.563,8.218 4.691,11.079 3.127,2.861 6.737,4.292 10.829,4.292 4.192,0 7.818,-1.431 10.88,-4.292 3.077,-2.861 4.616,-6.563 4.616,-11.104 0,-4.508 -1.539,-8.192 -4.616,-11.054 -3.078,-2.878 -6.712,-4.317 -10.904,-4.317 -4.159,0 -7.785,1.447 -10.88,4.342 -3.077,2.895 -4.616,6.58 -4.616,11.054 z"
       class="st29" /><path
       transform="matrix(1.2273033,0,0,1.2273033,-11.250727,63.129029)"
       style="fill:#ffffff"
       inkscape:connector-curvature="0"
       id="path14498"
       d="m 1319.903,160.878 2.72,0 0,34.734 -2.72,0 0,-34.734 z"
       class="st29" /><path
       transform="matrix(1.2273033,0,0,1.2273033,-11.250727,63.129029)"
       style="fill:#ffffff"
       inkscape:connector-curvature="0"
       id="path14500"
       d="m 1359.527,163.299 0,3.019 c -4.358,-2.329 -8.483,-3.493 -12.376,-3.493 -4.392,0 -8.019,1.472 -10.879,4.417 -2.862,2.928 -4.292,6.596 -4.292,11.004 0,4.192 1.372,7.811 4.117,10.854 2.744,3.044 6.504,4.566 11.278,4.566 3.659,0 7.843,-1.164 12.551,-3.493 l 0,2.77 c -2.029,0.982 -4.092,1.764 -6.188,2.346 -2.097,0.582 -4.218,0.873 -6.363,0.873 -5.307,0 -9.69,-1.713 -13.15,-5.14 -3.443,-3.427 -5.165,-7.686 -5.165,-12.776 0,-5.073 1.764,-9.324 5.29,-12.75 3.526,-3.443 7.835,-5.166 12.926,-5.166 3.726,-0.001 7.81,0.989 12.251,2.969 z"
       class="st29" /><path
       transform="matrix(1.2273033,0,0,1.2273033,-11.250727,63.129029)"
       style="fill:#ffffff"
       inkscape:connector-curvature="0"
       id="path14502"
       d="m 1365.241,195.612 0,-34.734 19.089,0 0,2.246 -16.368,0 0,13.949 15.944,0 0,2.246 -15.944,0 0,14.048 16.793,0 0,2.246 -19.514,0 z"
       class="st29" /><path
       transform="matrix(1.2273033,0,0,1.2273033,-11.250727,63.129029)"
       style="fill:#ffffff"
       inkscape:connector-curvature="0"
       id="path14504"
       d="m 1388.972,189.773 c 2.013,1.497 3.685,2.52 5.016,3.069 1.348,0.549 2.637,0.823 3.868,0.823 2.112,0 3.867,-0.657 5.265,-1.971 1.397,-1.331 2.096,-2.978 2.096,-4.941 0,-1.68 -0.474,-3.069 -1.422,-4.167 -0.932,-1.098 -2.521,-2.096 -4.767,-2.994 l -3.368,-1.272 c -2.429,-0.981 -4.217,-2.163 -5.365,-3.543 -1.147,-1.38 -1.722,-3.102 -1.722,-5.165 0,-2.579 0.965,-4.766 2.895,-6.563 1.946,-1.813 4.325,-2.72 7.137,-2.72 1.381,0 2.753,0.208 4.117,0.624 1.364,0.416 2.637,0.94 3.817,1.572 l 0,2.994 c -0.748,-0.399 -1.904,-0.948 -3.468,-1.647 -1.564,-0.699 -2.994,-1.048 -4.292,-1.048 -2.213,0 -3.984,0.682 -5.315,2.046 -1.313,1.348 -1.971,2.878 -1.971,4.591 0,1.564 0.466,2.853 1.397,3.868 0.932,0.998 2.387,1.872 4.366,2.62 l 3.394,1.347 c 4.991,1.863 7.486,4.949 7.486,9.258 0,2.761 -0.998,5.057 -2.994,6.887 -1.98,1.813 -4.351,2.72 -7.112,2.72 -2.861,0 -5.88,-1.056 -9.058,-3.169 l 0,-3.219 z"
       class="st29" /><path
       transform="matrix(1.2273033,0,0,1.2273033,-11.250727,63.129029)"
       style="fill:#ffffff"
       inkscape:connector-curvature="0"
       id="path14506"
       d="m 1457.342,163.299 0,3.019 c -4.358,-2.329 -8.483,-3.493 -12.376,-3.493 -4.392,0 -8.019,1.472 -10.879,4.417 -2.862,2.928 -4.292,6.596 -4.292,11.004 0,4.192 1.372,7.811 4.117,10.854 2.744,3.044 6.504,4.566 11.278,4.566 3.659,0 7.843,-1.164 12.551,-3.493 l 0,2.77 c -2.029,0.982 -4.092,1.764 -6.188,2.346 -2.097,0.582 -4.218,0.873 -6.363,0.873 -5.307,0 -9.69,-1.713 -13.15,-5.14 -3.443,-3.427 -5.165,-7.686 -5.165,-12.776 0,-5.073 1.764,-9.324 5.29,-12.75 3.526,-3.443 7.835,-5.166 12.926,-5.166 3.725,-0.001 7.809,0.989 12.251,2.969 z"
       class="st29" /><path
       transform="matrix(1.2273033,0,0,1.2273033,-11.250727,63.129029)"
       style="fill:#ffffff"
       inkscape:connector-curvature="0"
       id="path14508"
       d="m 1461.584,178.245 c 0,-5.256 1.83,-9.557 5.489,-12.9 3.66,-3.344 7.927,-5.016 12.801,-5.016 5.257,0 9.665,1.755 13.225,5.265 3.56,3.494 5.34,7.71 5.34,12.651 0,4.958 -1.796,9.183 -5.39,12.676 -3.576,3.493 -7.927,5.24 -13.05,5.24 -4.907,0 -9.208,-1.672 -12.9,-5.015 -3.677,-3.36 -5.515,-7.661 -5.515,-12.901 z m 2.919,-0.025 c 0,4.525 1.563,8.218 4.691,11.079 3.127,2.861 6.737,4.292 10.829,4.292 4.192,0 7.818,-1.431 10.88,-4.292 3.077,-2.861 4.616,-6.563 4.616,-11.104 0,-4.508 -1.539,-8.192 -4.616,-11.054 -3.078,-2.878 -6.712,-4.317 -10.904,-4.317 -4.159,0 -7.785,1.447 -10.88,4.342 -3.077,2.895 -4.616,6.58 -4.616,11.054 z"
       class="st29" /><path
       transform="matrix(1.2273033,0,0,1.2273033,-11.250727,63.129029)"
       style="fill:#ffffff"
       inkscape:connector-curvature="0"
       id="path14510"
       d="m 1504.303,160.878 2.72,0 0,19.213 c 0,4.292 1.073,7.627 3.219,10.006 2.163,2.379 5.032,3.568 8.609,3.568 3.526,0 6.371,-1.198 8.533,-3.593 2.18,-2.412 3.27,-5.739 3.27,-9.981 l 0,-19.213 2.72,0 0,19.288 c 0,5.174 -1.39,9.133 -4.167,11.877 -2.762,2.745 -6.255,4.117 -10.48,4.117 -4.143,0 -7.586,-1.372 -10.33,-4.117 -2.729,-2.761 -4.093,-6.579 -4.093,-11.453 l 0,-19.712 z"
       class="st29" /><path
       transform="matrix(1.2273033,0,0,1.2273033,-11.250727,63.129029)"
       style="fill:#ffffff"
       inkscape:connector-curvature="0"
       id="path14512"
       d="m 1540.685,160.878 2.295,0 26.45,30.392 0,-30.392 2.72,0 0,34.734 -2.246,0 -26.499,-30.392 0,30.392 -2.72,0 0,-34.734 z"
       class="st29" /><path
       transform="matrix(1.2273033,0,0,1.2273033,-11.250727,63.129029)"
       style="fill:#ffffff"
       inkscape:connector-curvature="0"
       id="path14514"
       d="m 1576.117,160.878 29.069,0 0,2.246 -13.175,0 0,32.488 -2.72,0 0,-32.488 -13.175,0 0,-2.246 z"
       class="st29" /><g
       id="g7636"><g
         id="g14518"
         transform="matrix(1.2273033,0,0,1.2273033,-1539.3974,-264.93961)"><g
           id="g14520"><path
             class="st38"
             d="m 1229.599,272.646 0,-27.578 10.347,0 c 2.107,0 3.797,0.279 5.07,0.837 1.272,0.559 2.27,1.417 2.991,2.578 0.721,1.16 1.081,2.374 1.081,3.64 0,1.179 -0.319,2.289 -0.959,3.33 -0.64,1.041 -1.605,1.881 -2.897,2.521 1.668,0.489 2.95,1.323 3.848,2.502 0.896,1.179 1.345,2.571 1.345,4.176 0,1.292 -0.272,2.493 -0.818,3.603 -0.546,1.11 -1.22,1.966 -2.022,2.568 -0.802,0.602 -1.809,1.057 -3.02,1.364 -1.21,0.308 -2.692,0.461 -4.448,0.461 l -10.518,0 z m 3.65,-15.99 5.963,0 c 1.618,0 2.777,-0.106 3.48,-0.32 0.928,-0.275 1.627,-0.733 2.098,-1.373 0.47,-0.64 0.705,-1.442 0.705,-2.408 0,-0.916 -0.22,-1.722 -0.658,-2.417 -0.439,-0.696 -1.066,-1.172 -1.882,-1.43 -0.814,-0.257 -2.213,-0.386 -4.194,-0.386 l -5.512,0 0,8.334 z m 0,12.736 6.866,0 c 1.179,0 2.006,-0.044 2.482,-0.132 0.841,-0.15 1.543,-0.401 2.107,-0.752 0.564,-0.351 1.028,-0.862 1.392,-1.533 0.364,-0.671 0.546,-1.445 0.546,-2.323 0,-1.028 -0.264,-1.922 -0.79,-2.681 -0.526,-0.759 -1.258,-1.292 -2.191,-1.599 -0.935,-0.307 -2.279,-0.461 -4.035,-0.461 l -6.377,0 0,9.481 z"
             id="path14522"
             inkscape:connector-curvature="0"
             style="fill:#010101" /><path
             class="st38"
             d="m 1275.291,272.646 0,-27.578 3.65,0 0,24.324 13.582,0 0,3.254 -17.232,0 z"
             id="path14524"
             inkscape:connector-curvature="0"
             style="fill:#010101" /><path
             class="st38"
             d="m 1313.835,272.646 10.591,-27.578 3.932,0 11.287,27.578 -4.157,0 -3.217,-8.353 -11.531,0 -3.029,8.353 -3.876,0 z m 7.958,-11.324 9.349,0 -2.878,-7.638 c -0.878,-2.32 -1.53,-4.226 -1.956,-5.719 -0.352,1.769 -0.847,3.524 -1.486,5.267 l -3.029,8.09 z"
             id="path14526"
             inkscape:connector-curvature="0"
             style="fill:#010101" /><path
             class="st38"
             d="m 1382.234,262.977 3.649,0.922 c -0.765,2.998 -2.142,5.283 -4.129,6.857 -1.988,1.574 -4.418,2.361 -7.29,2.361 -2.972,0 -5.39,-0.605 -7.252,-1.815 -1.862,-1.21 -3.279,-2.963 -4.251,-5.258 -0.973,-2.295 -1.458,-4.759 -1.458,-7.393 0,-2.872 0.549,-5.377 1.646,-7.515 1.098,-2.138 2.659,-3.763 4.685,-4.873 2.026,-1.11 4.254,-1.665 6.688,-1.665 2.759,0 5.079,0.702 6.961,2.107 1.881,1.405 3.191,3.38 3.932,5.926 l -3.594,0.846 c -0.64,-2.006 -1.567,-3.467 -2.784,-4.383 -1.217,-0.916 -2.746,-1.374 -4.59,-1.374 -2.119,0 -3.891,0.508 -5.314,1.524 -1.424,1.016 -2.424,2.379 -3,4.091 -0.577,1.712 -0.865,3.478 -0.865,5.296 0,2.345 0.341,4.393 1.024,6.142 0.683,1.749 1.747,3.057 3.189,3.922 1.441,0.866 3.003,1.298 4.684,1.298 2.044,0 3.774,-0.589 5.192,-1.769 1.416,-1.177 2.375,-2.927 2.877,-5.247 z"
             id="path14528"
             inkscape:connector-curvature="0"
             style="fill:#010101" /><path
             class="st38"
             d="m 1410.224,272.646 0,-27.578 3.65,0 0,13.676 13.694,-13.676 4.948,0 -11.569,11.174 12.077,16.404 -4.816,0 -9.819,-13.958 -4.515,4.402 0,9.557 -3.65,0 z"
             id="path14530"
             inkscape:connector-curvature="0"
             style="fill:#010101" /></g><g
           id="g14532"><path
             class="st38"
             d="m 1454.494,263.523 8.107,-0.508 c 0.176,1.317 0.533,2.32 1.072,3.01 0.878,1.116 2.132,1.674 3.763,1.674 1.216,0 2.154,-0.285 2.813,-0.855 0.659,-0.57 0.987,-1.232 0.987,-1.985 0,-0.715 -0.313,-1.354 -0.94,-1.919 -0.627,-0.565 -2.082,-1.097 -4.364,-1.599 -3.737,-0.84 -6.402,-1.956 -7.995,-3.348 -1.605,-1.392 -2.408,-3.167 -2.408,-5.324 0,-1.417 0.411,-2.756 1.232,-4.017 0.821,-1.26 2.057,-2.251 3.706,-2.972 1.648,-0.721 3.909,-1.082 6.781,-1.082 3.524,0 6.211,0.655 8.062,1.966 1.85,1.311 2.95,3.396 3.301,6.255 l -8.032,0.47 c -0.214,-1.242 -0.662,-2.145 -1.345,-2.709 -0.685,-0.564 -1.628,-0.846 -2.832,-0.846 -0.99,0 -1.736,0.21 -2.238,0.63 -0.502,0.42 -0.752,0.931 -0.752,1.533 0,0.439 0.206,0.834 0.62,1.185 0.401,0.364 1.354,0.703 2.859,1.016 3.725,0.803 6.393,1.615 8.005,2.436 1.611,0.821 2.784,1.841 3.518,3.057 0.734,1.216 1.101,2.577 1.101,4.082 0,1.768 -0.489,3.398 -1.468,4.891 -0.978,1.493 -2.345,2.624 -4.101,3.396 -1.756,0.771 -3.97,1.157 -6.641,1.157 -4.69,0 -7.938,-0.903 -9.744,-2.709 -1.807,-1.806 -2.83,-4.101 -3.067,-6.885 z"
             id="path14534"
             inkscape:connector-curvature="0"
             style="fill:#010101" /><path
             class="st38"
             d="m 1520.752,268.094 -9.675,0 -1.344,4.552 -8.701,0 10.365,-27.578 9.295,0 10.363,27.578 -8.924,0 -1.379,-4.552 z m -1.768,-5.963 -3.044,-9.914 -3.013,9.914 6.057,0 z"
             id="path14536"
             inkscape:connector-curvature="0"
             style="fill:#010101" /><path
             class="st38"
             d="m 1552.273,263.523 8.107,-0.508 c 0.176,1.317 0.533,2.32 1.072,3.01 0.878,1.116 2.132,1.674 3.763,1.674 1.216,0 2.154,-0.285 2.813,-0.855 0.659,-0.57 0.987,-1.232 0.987,-1.985 0,-0.715 -0.313,-1.354 -0.94,-1.919 -0.627,-0.565 -2.082,-1.097 -4.364,-1.599 -3.737,-0.84 -6.402,-1.956 -7.995,-3.348 -1.605,-1.392 -2.408,-3.167 -2.408,-5.324 0,-1.417 0.411,-2.756 1.232,-4.017 0.821,-1.26 2.057,-2.251 3.706,-2.972 1.648,-0.721 3.909,-1.082 6.781,-1.082 3.524,0 6.211,0.655 8.062,1.966 1.85,1.311 2.95,3.396 3.301,6.255 l -8.032,0.47 c -0.214,-1.242 -0.662,-2.145 -1.345,-2.709 -0.685,-0.564 -1.628,-0.846 -2.832,-0.846 -0.99,0 -1.736,0.21 -2.238,0.63 -0.502,0.42 -0.752,0.931 -0.752,1.533 0,0.439 0.206,0.834 0.62,1.185 0.401,0.364 1.354,0.703 2.859,1.016 3.725,0.803 6.393,1.615 8.005,2.436 1.611,0.821 2.784,1.841 3.518,3.057 0.734,1.216 1.101,2.577 1.101,4.082 0,1.768 -0.489,3.398 -1.468,4.891 -0.978,1.493 -2.345,2.624 -4.101,3.396 -1.756,0.771 -3.97,1.157 -6.641,1.157 -4.69,0 -7.938,-0.903 -9.744,-2.709 -1.807,-1.806 -2.829,-4.101 -3.067,-6.885 z"
             id="path14538"
             inkscape:connector-curvature="0"
             style="fill:#010101" /><path
             class="st38"
             d="m 1601.615,245.068 8.521,0 0,9.65 9.313,0 0,-9.65 8.559,0 0,27.578 -8.559,0 0,-11.155 -9.313,0 0,11.155 -8.521,0 0,-27.578 z"
             id="path14540"
             inkscape:connector-curvature="0"
             style="fill:#010101" /></g><rect
           x="1228.688"
           y="275.534"
           class="st38"
           width="399.715"
           height="26.488001"
           id="rect14542"
           style="fill:#010101" /><g
           id="g14544"><path
             class="st29"
             d="m 1239.067,294.868 0,-15.142 3.016,0 3.584,10.721 c 0.331,0.999 0.571,1.746 0.724,2.242 0.172,-0.551 0.44,-1.36 0.806,-2.427 l 3.625,-10.536 2.695,0 0,15.142 -1.931,0 0,-12.673 -4.4,12.673 -1.808,0 -4.38,-12.89 0,12.89 -1.931,0 z"
             id="path14546"
             inkscape:connector-curvature="0"
             style="fill:#ffffff" /><path
             class="st29"
             d="m 1258.049,294.868 5.815,-15.142 2.158,0 6.197,15.142 -2.282,0 -1.767,-4.586 -6.331,0 -1.663,4.586 -2.127,0 z m 4.369,-6.218 5.134,0 -1.58,-4.194 c -0.482,-1.273 -0.841,-2.32 -1.074,-3.14 -0.193,0.971 -0.465,1.935 -0.816,2.892 l -1.664,4.442 z"
             id="path14548"
             inkscape:connector-curvature="0"
             style="fill:#ffffff" /><path
             class="st29"
             d="m 1276.7,294.868 0,-15.142 2.003,0 0,7.509 7.52,-7.509 2.717,0 -6.353,6.135 6.631,9.007 -2.644,0 -5.392,-7.664 -2.479,2.417 0,5.247 -2.003,0 z"
             id="path14550"
             inkscape:connector-curvature="0"
             style="fill:#ffffff" /><path
             class="st29"
             d="m 1294.194,294.868 0,-15.142 2.004,0 0,15.142 -2.004,0 z"
             id="path14552"
             inkscape:connector-curvature="0"
             style="fill:#ffffff" /><path
             class="st29"
             d="m 1302.671,294.868 0,-15.142 2.056,0 7.953,11.889 0,-11.889 1.921,0 0,15.142 -2.056,0 -7.953,-11.899 0,11.899 -1.921,0 z"
             id="path14554"
             inkscape:connector-curvature="0"
             style="fill:#ffffff" /><path
             class="st29"
             d="m 1328.016,288.929 0,-1.777 6.414,-0.01 0,5.619 c -0.985,0.785 -2.001,1.375 -3.047,1.771 -1.047,0.396 -2.121,0.594 -3.223,0.594 -1.487,0 -2.839,-0.318 -4.055,-0.956 -1.215,-0.637 -2.133,-1.558 -2.752,-2.763 -0.62,-1.205 -0.93,-2.551 -0.93,-4.039 0,-1.474 0.308,-2.849 0.924,-4.126 0.616,-1.277 1.503,-2.226 2.66,-2.846 1.157,-0.62 2.489,-0.93 3.997,-0.93 1.095,0 2.085,0.178 2.97,0.532 0.885,0.354 1.578,0.849 2.081,1.482 0.503,0.634 0.885,1.46 1.146,2.479 l -1.808,0.496 c -0.227,-0.771 -0.51,-1.377 -0.847,-1.818 -0.338,-0.44 -0.819,-0.793 -1.446,-1.059 -0.626,-0.265 -1.322,-0.397 -2.086,-0.397 -0.916,0 -1.708,0.139 -2.376,0.418 -0.668,0.279 -1.207,0.646 -1.616,1.1 -0.41,0.455 -0.729,0.954 -0.956,1.498 -0.385,0.937 -0.578,1.952 -0.578,3.047 0,1.35 0.232,2.479 0.697,3.388 0.465,0.909 1.142,1.584 2.029,2.024 0.889,0.441 1.832,0.661 2.83,0.661 0.868,0 1.715,-0.167 2.541,-0.501 0.826,-0.334 1.453,-0.69 1.88,-1.069 l 0,-2.82 -4.449,0 z"
             id="path14556"
             inkscape:connector-curvature="0"
             style="fill:#ffffff" /><path
             class="st29"
             d="m 1349.246,294.868 0,-15.142 2.003,0 0,6.218 7.871,0 0,-6.218 2.004,0 0,15.142 -2.004,0 0,-7.137 -7.871,0 0,7.137 -2.003,0 z"
             id="path14558"
             inkscape:connector-curvature="0"
             style="fill:#ffffff" /><path
             class="st29"
             d="m 1377.357,279.726 2.004,0 0,8.749 c 0,1.522 -0.173,2.73 -0.517,3.625 -0.345,0.895 -0.966,1.624 -1.864,2.185 -0.898,0.561 -2.078,0.842 -3.538,0.842 -1.418,0 -2.578,-0.245 -3.48,-0.733 -0.902,-0.488 -1.546,-1.196 -1.932,-2.123 -0.386,-0.927 -0.578,-2.191 -0.578,-3.796 l 0,-8.749 2.004,0 0,8.738 c 0,1.315 0.122,2.284 0.366,2.908 0.244,0.623 0.665,1.104 1.261,1.44 0.595,0.338 1.323,0.506 2.185,0.506 1.473,0 2.523,-0.334 3.149,-1.002 0.627,-0.668 0.94,-1.952 0.94,-3.853 l 0,-8.737 z"
             id="path14560"
             inkscape:connector-curvature="0"
             style="fill:#ffffff" /><path
             class="st29"
             d="m 1385.598,294.868 0,-15.142 3.016,0 3.584,10.721 c 0.331,0.999 0.571,1.746 0.724,2.242 0.172,-0.551 0.44,-1.36 0.806,-2.427 l 3.625,-10.536 2.695,0 0,15.142 -1.931,0 0,-12.673 -4.4,12.673 -1.808,0 -4.38,-12.89 0,12.89 -1.931,0 z"
             id="path14562"
             inkscape:connector-curvature="0"
             style="fill:#ffffff" /><path
             class="st29"
             d="m 1404.578,294.868 5.815,-15.142 2.158,0 6.197,15.142 -2.282,0 -1.767,-4.586 -6.331,0 -1.663,4.586 -2.127,0 z m 4.369,-6.218 5.134,0 -1.58,-4.194 c -0.482,-1.273 -0.841,-2.32 -1.074,-3.14 -0.193,0.971 -0.465,1.935 -0.816,2.892 l -1.664,4.442 z"
             id="path14564"
             inkscape:connector-curvature="0"
             style="fill:#ffffff" /><path
             class="st29"
             d="m 1423.292,294.868 0,-15.142 2.056,0 7.953,11.889 0,-11.889 1.921,0 0,15.142 -2.056,0 -7.953,-11.899 0,11.899 -1.921,0 z"
             id="path14566"
             inkscape:connector-curvature="0"
             style="fill:#ffffff" /><path
             class="st29"
             d="m 1450.42,294.868 0,-15.142 6.714,0 c 1.35,0 2.375,0.136 3.078,0.408 0.702,0.272 1.263,0.752 1.684,1.441 0.42,0.688 0.63,1.449 0.63,2.283 0,1.074 -0.348,1.979 -1.044,2.716 -0.695,0.737 -1.77,1.205 -3.222,1.405 0.529,0.255 0.933,0.506 1.208,0.754 0.585,0.537 1.14,1.208 1.663,2.014 l 2.634,4.121 -2.521,0 -2.004,-3.15 c -0.585,-0.909 -1.067,-1.604 -1.445,-2.086 -0.379,-0.482 -0.718,-0.819 -1.018,-1.012 -0.3,-0.192 -0.604,-0.327 -0.914,-0.403 -0.228,-0.048 -0.6,-0.072 -1.116,-0.072 l -2.323,0 0,6.724 -2.004,0 z m 2.004,-8.46 4.307,0 c 0.916,0 1.632,-0.094 2.148,-0.284 0.516,-0.19 0.909,-0.492 1.178,-0.909 0.269,-0.417 0.402,-0.869 0.402,-1.358 0,-0.716 -0.26,-1.305 -0.779,-1.767 -0.521,-0.461 -1.341,-0.692 -2.464,-0.692 l -4.792,0 0,5.01 z"
             id="path14568"
             inkscape:connector-curvature="0"
             style="fill:#ffffff" /><path
             class="st29"
             d="m 1468.968,294.868 0,-15.142 2.004,0 0,15.142 -2.004,0 z"
             id="path14570"
             inkscape:connector-curvature="0"
             style="fill:#ffffff" /><path
             class="st29"
             d="m 1484.551,288.929 0,-1.777 6.414,-0.01 0,5.619 c -0.985,0.785 -2.001,1.375 -3.047,1.771 -1.047,0.396 -2.121,0.594 -3.223,0.594 -1.487,0 -2.839,-0.318 -4.055,-0.956 -1.215,-0.637 -2.133,-1.558 -2.752,-2.763 -0.62,-1.205 -0.93,-2.551 -0.93,-4.039 0,-1.474 0.308,-2.849 0.924,-4.126 0.616,-1.277 1.503,-2.226 2.66,-2.846 1.157,-0.62 2.489,-0.93 3.997,-0.93 1.095,0 2.085,0.178 2.97,0.532 0.885,0.354 1.578,0.849 2.081,1.482 0.503,0.634 0.885,1.46 1.146,2.479 l -1.808,0.496 c -0.227,-0.771 -0.51,-1.377 -0.847,-1.818 -0.338,-0.44 -0.819,-0.793 -1.446,-1.059 -0.626,-0.265 -1.322,-0.397 -2.086,-0.397 -0.916,0 -1.708,0.139 -2.376,0.418 -0.668,0.279 -1.207,0.646 -1.616,1.1 -0.41,0.455 -0.729,0.954 -0.956,1.498 -0.385,0.937 -0.578,1.952 -0.578,3.047 0,1.35 0.232,2.479 0.697,3.388 0.465,0.909 1.142,1.584 2.029,2.024 0.889,0.441 1.832,0.661 2.83,0.661 0.868,0 1.715,-0.167 2.541,-0.501 0.826,-0.334 1.453,-0.69 1.88,-1.069 l 0,-2.82 -4.449,0 z"
             id="path14572"
             inkscape:connector-curvature="0"
             style="fill:#ffffff" /><path
             class="st29"
             d="m 1496.943,294.868 0,-15.142 2.003,0 0,6.218 7.871,0 0,-6.218 2.004,0 0,15.142 -2.004,0 0,-7.137 -7.871,0 0,7.137 -2.003,0 z"
             id="path14574"
             inkscape:connector-curvature="0"
             style="fill:#ffffff" /><path
             class="st29"
             d="m 1518.971,294.868 0,-13.355 -4.988,0 0,-1.787 12.002,0 0,1.787 -5.01,0 0,13.355 -2.004,0 z"
             id="path14576"
             inkscape:connector-curvature="0"
             style="fill:#ffffff" /><path
             class="st29"
             d="m 1530.319,290.003 1.891,-0.166 c 0.089,0.758 0.297,1.379 0.624,1.864 0.327,0.486 0.835,0.878 1.524,1.178 0.688,0.299 1.463,0.449 2.323,0.449 0.765,0 1.439,-0.114 2.024,-0.341 0.586,-0.227 1.021,-0.539 1.307,-0.935 0.286,-0.396 0.429,-0.828 0.429,-1.296 0,-0.475 -0.138,-0.89 -0.413,-1.245 -0.275,-0.355 -0.729,-0.652 -1.363,-0.894 -0.406,-0.158 -1.305,-0.404 -2.695,-0.738 -1.392,-0.334 -2.366,-0.649 -2.924,-0.945 -0.723,-0.378 -1.262,-0.849 -1.616,-1.41 -0.354,-0.561 -0.532,-1.189 -0.532,-1.885 0,-0.764 0.217,-1.479 0.651,-2.143 0.434,-0.665 1.067,-1.169 1.9,-1.513 0.833,-0.344 1.759,-0.517 2.778,-0.517 1.122,0 2.112,0.181 2.97,0.542 0.858,0.361 1.517,0.894 1.978,1.596 0.461,0.703 0.709,1.498 0.744,2.386 l -1.922,0.145 c -0.103,-0.957 -0.452,-1.68 -1.048,-2.169 -0.596,-0.489 -1.476,-0.733 -2.639,-0.733 -1.213,0 -2.096,0.222 -2.649,0.666 -0.555,0.444 -0.832,0.979 -0.832,1.606 0,0.544 0.196,0.992 0.589,1.343 0.386,0.351 1.393,0.711 3.021,1.08 1.628,0.368 2.745,0.69 3.352,0.966 0.881,0.406 1.532,0.921 1.952,1.544 0.42,0.624 0.63,1.341 0.63,2.154 0,0.805 -0.23,1.564 -0.692,2.277 -0.461,0.712 -1.124,1.267 -1.988,1.663 -0.864,0.396 -1.837,0.594 -2.918,0.594 -1.37,0 -2.519,-0.2 -3.444,-0.599 -0.925,-0.399 -1.652,-1 -2.18,-1.802 -0.527,-0.803 -0.804,-1.71 -0.832,-2.722 z"
             id="path14578"
             inkscape:connector-curvature="0"
             style="fill:#ffffff" /><path
             class="st29"
             d="m 1556.941,294.868 0,-15.142 6.714,0 c 1.35,0 2.375,0.136 3.078,0.408 0.702,0.272 1.263,0.752 1.684,1.441 0.42,0.688 0.63,1.449 0.63,2.283 0,1.074 -0.348,1.979 -1.044,2.716 -0.695,0.737 -1.77,1.205 -3.222,1.405 0.529,0.255 0.933,0.506 1.208,0.754 0.585,0.537 1.14,1.208 1.663,2.014 l 2.634,4.121 -2.521,0 -2.004,-3.15 c -0.585,-0.909 -1.067,-1.604 -1.445,-2.086 -0.379,-0.482 -0.718,-0.819 -1.018,-1.012 -0.3,-0.192 -0.604,-0.327 -0.914,-0.403 -0.228,-0.048 -0.6,-0.072 -1.116,-0.072 l -2.323,0 0,6.724 -2.004,0 z m 2.004,-8.46 4.307,0 c 0.916,0 1.632,-0.094 2.148,-0.284 0.516,-0.19 0.909,-0.492 1.178,-0.909 0.269,-0.417 0.402,-0.869 0.402,-1.358 0,-0.716 -0.26,-1.305 -0.779,-1.767 -0.521,-0.461 -1.341,-0.692 -2.464,-0.692 l -4.792,0 0,5.01 z"
             id="path14580"
             inkscape:connector-curvature="0"
             style="fill:#ffffff" /><path
             class="st29"
             d="m 1575.188,294.868 0,-15.142 10.949,0 0,1.787 -8.945,0 0,4.638 8.377,0 0,1.776 -8.377,0 0,5.154 9.296,0 0,1.787 -11.3,0 z"
             id="path14582"
             inkscape:connector-curvature="0"
             style="fill:#ffffff" /><path
             class="st29"
             d="m 1590.556,294.868 5.815,-15.142 2.158,0 6.197,15.142 -2.282,0 -1.767,-4.586 -6.331,0 -1.663,4.586 -2.127,0 z m 4.369,-6.218 5.134,0 -1.58,-4.194 c -0.482,-1.273 -0.841,-2.32 -1.074,-3.14 -0.193,0.971 -0.465,1.935 -0.816,2.892 l -1.664,4.442 z"
             id="path14584"
             inkscape:connector-curvature="0"
             style="fill:#ffffff" /><path
             class="st29"
             d="m 1609.208,294.868 0,-15.142 2.003,0 0,13.355 7.458,0 0,1.787 -9.461,0 z"
             id="path14586"
             inkscape:connector-curvature="0"
             style="fill:#ffffff" /></g></g><rect
         x="-31.424603"
         y="109.36455"
         class="st18"
         width="490.57153"
         height="16.254406"
         id="rect14588"
         style="fill:#f4991f" /></g><g
       transform="matrix(1.2273033,0,0,1.2273033,-11.250727,63.129029)"
       id="g18199"><g
         id="g18203" /></g><g
       transform="matrix(1.2273033,0,0,1.2273033,-11.250727,63.129029)"
       id="g18219"><g
         id="g18223" /></g><g
       transform="matrix(1.2273033,0,0,1.2273033,-11.250727,63.129029)"
       id="g18393"><g
         id="g18397" /></g><g
       transform="matrix(1.2273033,0,0,1.2273033,-11.250727,63.129029)"
       id="graphs" /><g
       transform="matrix(1.2273033,0,0,1.2273033,-11.250727,63.129029)"
       style="fill:#ffffff"
       id="g17476"><g
         id="g17480" /></g></g></svg>