<?xml version="1.0" encoding="utf-8"?>
<!-- Generator: Adobe Illustrator 15.1.0, SVG Export Plug-In . SVG Version: 6.00 Build 0)  -->
<!DOCTYPE svg PUBLIC "-//W3C//DTD SVG 1.1//EN" "http://www.w3.org/Graphics/SVG/1.1/DTD/svg11.dtd">
<svg version="1.1" id="Layer_1" xmlns="http://www.w3.org/2000/svg" xmlns:xlink="http://www.w3.org/1999/xlink" x="0px" y="0px"
	 width="80px" height="80px" viewBox="0 0 80 80" enable-background="new 0 0 80 80" xml:space="preserve">
<rect fill="#F37121" width="80" height="80"/>
<path fill="#FFFFFF" d="M24.674,42.305c-0.08-0.098-0.213-0.251-0.4-0.462c-0.189-0.211-0.481-0.316-0.875-0.316H21.38
	c-0.217,0-0.405,0.077-0.563,0.231c-0.159,0.152-0.237,0.335-0.237,0.547v18.61c0,0.211,0.078,0.395,0.237,0.546
	c0.158,0.155,0.346,0.232,0.563,0.232h2.404c0.216,0,0.404-0.077,0.563-0.232c0.158-0.151,0.236-0.335,0.236-0.546V49.65
	l3.859,6.481c0.098,0.154,0.236,0.313,0.415,0.477c0.179,0.163,0.406,0.243,0.683,0.243h1.543c0.276,0,0.504-0.08,0.683-0.243
	c0.178-0.163,0.316-0.322,0.415-0.477l3.858-6.481v11.265c0,0.211,0.079,0.395,0.237,0.546c0.158,0.155,0.346,0.232,0.564,0.232
	h2.403c0.218,0,0.406-0.077,0.564-0.232c0.158-0.151,0.238-0.335,0.238-0.546v-18.61c0-0.212-0.08-0.395-0.238-0.547
	c-0.158-0.154-0.346-0.231-0.564-0.231h-2.018c-0.396,0-0.687,0.105-0.875,0.316c-0.188,0.211-0.322,0.364-0.4,0.462l-5.638,9.507
	L24.674,42.305z"/>
<path fill="#FFFFFF" d="M44.406,41.526c-0.218,0-0.406,0.077-0.562,0.229c-0.16,0.155-0.238,0.337-0.238,0.549v2.044
	c0,0.213,0.078,0.396,0.238,0.549c0.156,0.153,0.345,0.229,0.562,0.229h5.342v15.788c0,0.211,0.078,0.393,0.236,0.547
	s0.348,0.231,0.564,0.231h2.404c0.217,0,0.406-0.077,0.562-0.231c0.158-0.154,0.238-0.336,0.238-0.547V45.127h5.34
	c0.219,0,0.406-0.076,0.566-0.229c0.158-0.153,0.234-0.336,0.234-0.549v-2.044c0-0.212-0.076-0.394-0.234-0.549
	c-0.16-0.152-0.348-0.229-0.566-0.229H44.406z"/>
<path fill="#FFFFFF" d="M33.102,29.734c-0.04,0.614-0.164,1.19-0.372,1.729c-0.208,0.537-0.509,0.998-0.905,1.383
	c-0.396,0.385-0.89,0.686-1.483,0.907c-0.594,0.222-1.297,0.332-2.107,0.332H24.11V21.12h3.976c0.851,0,1.583,0.11,2.196,0.332
	c0.613,0.221,1.123,0.528,1.528,0.922c0.405,0.394,0.711,0.854,0.919,1.383c0.208,0.528,0.332,1.1,0.372,1.714
	C33.18,26.891,33.18,28.312,33.102,29.734 M37.107,25.47c-0.08-1.21-0.312-2.305-0.698-3.284c-0.386-0.98-0.94-1.816-1.661-2.507
	c-0.723-0.691-1.623-1.224-2.7-1.599c-1.079-0.375-2.35-0.562-3.813-0.562h-7.33c-0.218,0-0.406,0.077-0.564,0.231
	s-0.238,0.336-0.238,0.547v18.61c0,0.211,0.08,0.393,0.238,0.547c0.158,0.155,0.346,0.231,0.564,0.231h7.478
	c1.425,0,2.666-0.188,3.723-0.562c1.059-0.375,1.945-0.907,2.657-1.599c0.711-0.692,1.26-1.527,1.646-2.507
	c0.386-0.979,0.618-2.073,0.698-3.283C37.186,28.312,37.186,26.891,37.107,25.47"/>
<path fill="#FFFFFF" d="M40.801,26.19c-0.01,0.442-0.015,0.894-0.015,1.354c0,0.461,0.004,0.913,0.015,1.354
	c0.01,0.443,0.024,0.846,0.044,1.211c0.04,1.152,0.252,2.213,0.638,3.183c0.387,0.971,0.944,1.801,1.677,2.493
	c0.731,0.69,1.652,1.229,2.76,1.613c1.107,0.383,2.414,0.576,3.916,0.576c1.504,0,2.82-0.198,3.947-0.591
	c1.127-0.392,2.066-0.94,2.818-1.641c0.754-0.701,1.316-1.536,1.691-2.507c0.377-0.969,0.564-2.032,0.564-3.184v-3.168
	c0-0.211-0.08-0.393-0.236-0.548c-0.158-0.154-0.348-0.229-0.564-0.229h-6.824c-0.219,0-0.406,0.076-0.564,0.229
	c-0.158,0.155-0.238,0.337-0.238,0.548v2.045c0,0.212,0.08,0.395,0.238,0.548c0.158,0.153,0.346,0.23,0.564,0.23h3.619v0.231
	c0,0.826-0.125,1.522-0.371,2.087c-0.248,0.567-0.594,1.024-1.037,1.369c-0.447,0.346-0.977,0.596-1.588,0.749
	c-0.615,0.154-1.287,0.231-2.02,0.231c-1.482,0-2.67-0.36-3.561-1.081c-0.889-0.719-1.365-1.876-1.424-3.472
	c-0.039-0.729-0.059-1.512-0.059-2.348c0-0.835,0.02-1.618,0.059-2.348c0.059-1.306,0.535-2.349,1.424-3.125
	c0.891-0.778,2.078-1.167,3.561-1.167c0.891,0,1.635,0.111,2.227,0.332c0.594,0.221,1.072,0.471,1.439,0.749
	c0.365,0.278,0.631,0.548,0.801,0.807c0.168,0.26,0.271,0.428,0.311,0.504c0.061,0.116,0.154,0.227,0.283,0.331
	c0.129,0.106,0.301,0.158,0.518,0.158h2.404c0.219,0,0.41-0.072,0.58-0.215c0.168-0.144,0.24-0.332,0.223-0.561
	c-0.041-0.443-0.193-0.985-0.461-1.628c-0.268-0.644-0.732-1.268-1.395-1.872c-0.664-0.606-1.553-1.124-2.67-1.557
	c-1.119-0.432-2.537-0.647-4.26-0.647c-1.465,0-2.744,0.187-3.844,0.561c-1.096,0.375-2.021,0.904-2.773,1.585
	c-0.751,0.681-1.325,1.498-1.721,2.448c-0.395,0.95-0.613,2.003-0.652,3.154C40.826,25.346,40.811,25.748,40.801,26.19"/>
</svg>
