<?xml version="1.0" encoding="UTF-8" standalone="no"?>
<!-- Generator: Adobe Illustrator 16.0.4, SVG Export Plug-In . SVG Version: 6.00 Build 0)  -->

<svg
   xmlns:dc="http://purl.org/dc/elements/1.1/"
   xmlns:cc="http://creativecommons.org/ns#"
   xmlns:rdf="http://www.w3.org/1999/02/22-rdf-syntax-ns#"
   xmlns:svg="http://www.w3.org/2000/svg"
   xmlns="http://www.w3.org/2000/svg"
   xmlns:sodipodi="http://sodipodi.sourceforge.net/DTD/sodipodi-0.dtd"
   xmlns:inkscape="http://www.inkscape.org/namespaces/inkscape"
   version="1.1"
   id="Layer_1"
   x="0px"
   y="0px"
   width="184"
   height="70"
   viewBox="0 0 184 70"
   enable-background="new 0 0 184 115"
   xml:space="preserve"
   inkscape:version="0.91 r13725"
   sodipodi:docname="mavc-logo-simple.svg"><metadata
     id="metadata57"><rdf:RDF><cc:Work
         rdf:about=""><dc:format>image/svg+xml</dc:format><dc:type
           rdf:resource="http://purl.org/dc/dcmitype/StillImage" /><dc:title></dc:title></cc:Work></rdf:RDF></metadata><defs
     id="defs55" /><sodipodi:namedview
     pagecolor="#ffffff"
     bordercolor="#666666"
     borderopacity="1"
     objecttolerance="10"
     gridtolerance="10"
     guidetolerance="10"
     inkscape:pageopacity="0"
     inkscape:pageshadow="2"
     inkscape:window-width="996"
     inkscape:window-height="652"
     id="namedview53"
     showgrid="false"
     inkscape:zoom="1.6847826"
     inkscape:cx="188.45161"
     inkscape:cy="12.5"
     inkscape:window-x="127"
     inkscape:window-y="110"
     inkscape:window-maximized="0"
     inkscape:current-layer="g3"
     fit-margin-top="0"
     fit-margin-left="0"
     fit-margin-right="0"
     fit-margin-bottom="0" /><g
     id="g3"><polygon
       points="184,0 0,0 0,0 0,70 184,70 "
       id="polygon11" /><polygon
       points="25.213,34.805 23.979,34.805 23.979,20.411 17.962,27.998 11.922,20.411 11.922,34.805 10.699,34.805 10.699,18.576 11.922,18.576 17.967,26.113 17.967,26.113 23.976,18.576 25.213,18.576 "
       id="polygon13"
       style="fill:#ffffff" /><path
       d="m 35.087,18.459 7.312,16.346 -1.283,0 -2.501,-5.611 -7.735,0 -2.493,5.611 -1.283,0 7.311,-16.346 0.672,0 0,0 z m 3.061,9.689 -3.408,-7.644 -3.396,7.644 6.804,0 0,0 z"
       id="path15"
       inkscape:connector-curvature="0"
       style="fill:#ffffff" /><polygon
       points="53.75,34.805 45.467,26.696 45.467,34.805 44.245,34.805 44.245,18.576 45.467,18.576 45.467,26.65 53.055,18.576 54.581,18.576 54.581,18.576 47.009,26.682 55.306,34.805 "
       id="polygon17"
       style="fill:#ffffff" /><polygon
       points="56.596,18.576 57.819,18.576 57.819,18.576 57.819,34.805 56.596,34.805 "
       id="polygon19"
       style="fill:#ffffff" /><polygon
       points="62.642,20.621 62.642,34.805 61.419,34.805 61.419,18.576 62.455,18.576 74.45,32.761 74.45,18.576 75.673,18.576 75.673,18.576 75.673,34.805 74.666,34.805 "
       id="polygon21"
       style="fill:#ffffff" /><path
       d="m 92.553,19.749 0,1.417 c -1.872,-1.092 -3.739,-1.638 -5.604,-1.638 -2,0 -3.665,0.682 -4.993,2.045 -1.328,1.363 -1.993,3.071 -1.993,5.123 0,2.053 0.657,3.758 1.971,5.117 1.314,1.359 3.098,2.039 5.354,2.039 1.63,0 3.076,-0.333 4.336,-0.999 l 0,-4.38 -3.34,0 0,-1.045 4.574,0 0,6.215 c -1.864,0.914 -3.736,1.371 -5.616,1.371 -2.453,0 -4.5,-0.797 -6.142,-2.393 -1.642,-1.595 -2.463,-3.586 -2.463,-5.971 0,-2.37 0.805,-4.343 2.417,-5.919 1.611,-1.576 3.636,-2.364 6.074,-2.364 1.662,0 3.471,0.46 5.425,1.382 l 0,0 z"
       id="path23"
       inkscape:connector-curvature="0"
       style="fill:#ffffff" /><path
       d="m 107.284,18.459 7.312,16.346 -1.283,0 -2.501,-5.611 -7.734,0 -2.493,5.611 -1.283,0 7.312,-16.346 0.67,0 0,0 z m 3.061,9.689 -3.408,-7.644 -3.396,7.644 6.804,0 0,0 z"
       id="path25"
       inkscape:connector-curvature="0"
       style="fill:#ffffff" /><polygon
       points="125.555,34.805 116.509,34.805 116.509,18.576 117.732,18.576 117.732,18.576 117.732,33.759 125.555,33.759 "
       id="polygon27"
       style="fill:#ffffff" /><polygon
       points="136.435,34.805 127.389,34.805 127.389,18.576 128.612,18.576 128.612,18.576 128.612,33.759 136.435,33.759 "
       id="polygon29"
       style="fill:#ffffff" /><polygon
       points="10.699,41.994 11.938,41.994 17.543,55.726 23.107,41.994 24.341,41.994 24.341,41.994 17.714,58.386 17.353,58.386 "
       id="polygon31"
       style="fill:#ffffff" /><path
       d="m 32.985,41.784 c 2.338,0 4.32,0.808 5.945,2.423 1.625,1.613 2.438,3.583 2.438,5.907 0,2.315 -0.813,4.281 -2.438,5.896 -1.625,1.614 -3.607,2.422 -5.945,2.422 -2.331,0 -4.305,-0.808 -5.923,-2.422 -1.618,-1.614 -2.426,-3.58 -2.426,-5.896 0,-2.324 0.809,-4.294 2.426,-5.907 1.618,-1.615 3.592,-2.423 5.923,-2.423 l 0,0 z m 0.045,15.487 c 1.968,0 3.629,-0.691 4.982,-2.074 1.354,-1.383 2.031,-3.076 2.031,-5.082 0,-2.014 -0.677,-3.712 -2.031,-5.095 -1.354,-1.383 -3.015,-2.073 -4.982,-2.073 -1.977,0 -3.648,0.69 -5.018,2.073 -1.369,1.383 -2.053,3.081 -2.053,5.095 0,2.006 0.685,3.699 2.053,5.082 1.37,1.382 3.042,2.074 5.018,2.074 l 0,0 z"
       id="path33"
       inkscape:connector-curvature="0"
       style="fill:#ffffff" /><polygon
       points="44.334,41.994 45.557,41.994 45.557,41.994 45.557,58.223 44.334,58.223 "
       id="polygon35"
       style="fill:#ffffff" /><path
       d="m 62.323,43.144 0,1.371 c -1.917,-1.046 -3.796,-1.568 -5.638,-1.568 -1.962,0 -3.604,0.685 -4.925,2.056 -1.321,1.371 -1.981,3.083 -1.981,5.135 0,2.076 0.664,3.784 1.992,5.124 1.329,1.34 3.023,2.01 5.083,2.01 1.721,0 3.596,-0.554 5.627,-1.662 l 0,1.302 c -1.872,1.015 -3.74,1.521 -5.604,1.521 -2.408,0 -4.414,-0.792 -6.018,-2.376 -1.604,-1.584 -2.406,-3.557 -2.406,-5.919 0,-2.377 0.818,-4.363 2.457,-5.959 1.638,-1.596 3.589,-2.394 5.854,-2.394 1.782,-10e-4 3.634,0.452 5.559,1.359 l 0,0 z"
       id="path37"
       inkscape:connector-curvature="0"
       style="fill:#ffffff" /><polygon
       points="66.07,49.533 73.282,49.533 73.282,50.59 66.07,50.59 66.07,57.177 73.655,57.177 73.655,58.223 64.847,58.223 64.847,41.994 73.474,41.994 73.474,41.994 73.474,43.039 66.07,43.039 "
       id="polygon39"
       style="fill:#ffffff" /><path
       d="m 83.607,42.807 0,1.383 c -1.374,-0.829 -2.555,-1.243 -3.544,-1.243 -0.951,0 -1.745,0.296 -2.383,0.888 -0.638,0.593 -0.956,1.327 -0.956,2.202 0,0.628 0.188,1.192 0.566,1.696 0.377,0.504 1.166,0.987 2.366,1.452 1.2,0.465 2.076,0.852 2.627,1.162 0.55,0.31 1.019,0.759 1.404,1.348 0.385,0.588 0.578,1.352 0.578,2.288 0,1.247 -0.446,2.301 -1.336,3.16 -0.891,0.859 -1.978,1.289 -3.261,1.289 -1.313,0 -2.665,-0.472 -4.053,-1.417 l 0,-1.476 c 1.532,1.154 2.86,1.731 3.985,1.731 0.936,0 1.726,-0.312 2.372,-0.936 0.645,-0.623 0.968,-1.389 0.968,-2.294 0,-0.69 -0.2,-1.312 -0.6,-1.866 -0.4,-0.554 -1.211,-1.071 -2.434,-1.553 -1.222,-0.48 -2.096,-0.868 -2.62,-1.163 -0.525,-0.294 -0.971,-0.715 -1.336,-1.26 -0.367,-0.546 -0.55,-1.248 -0.55,-2.107 0,-1.191 0.445,-2.208 1.336,-3.048 0.891,-0.84 1.962,-1.26 3.215,-1.26 1.229,10e-4 2.448,0.342 3.656,1.024 l 0,0 z"
       id="path41"
       inkscape:connector-curvature="0"
       style="fill:#ffffff" /><path
       d="m 106.611,43.144 0,1.371 c -1.917,-1.046 -3.798,-1.568 -5.639,-1.568 -1.963,0 -3.604,0.685 -4.925,2.056 -1.321,1.371 -1.981,3.083 -1.981,5.135 0,2.076 0.664,3.784 1.993,5.124 1.327,1.34 3.022,2.01 5.082,2.01 1.722,0 3.598,-0.554 5.627,-1.662 l 0,1.302 c -1.871,1.015 -3.738,1.521 -5.604,1.521 -2.407,0 -4.413,-0.792 -6.018,-2.376 -1.605,-1.584 -2.405,-3.557 -2.405,-5.919 0,-2.377 0.818,-4.363 2.457,-5.959 1.637,-1.596 3.588,-2.394 5.853,-2.394 1.782,-10e-4 3.635,0.452 5.56,1.359 l 0,0 z"
       id="path43"
       inkscape:connector-curvature="0"
       style="fill:#ffffff" /><path
       d="m 116.804,41.784 c 2.34,0 4.321,0.808 5.946,2.423 1.626,1.613 2.438,3.583 2.438,5.907 0,2.315 -0.812,4.281 -2.438,5.896 -1.625,1.614 -3.606,2.422 -5.946,2.422 -2.33,0 -4.304,-0.808 -5.922,-2.422 -1.618,-1.614 -2.427,-3.58 -2.427,-5.896 0,-2.324 0.809,-4.294 2.427,-5.907 1.618,-1.615 3.592,-2.423 5.922,-2.423 l 0,0 z m 0.046,15.487 c 1.97,0 3.629,-0.691 4.984,-2.074 1.353,-1.383 2.03,-3.076 2.03,-5.082 0,-2.014 -0.678,-3.712 -2.03,-5.095 -1.355,-1.383 -3.015,-2.073 -4.984,-2.073 -1.976,0 -3.647,0.69 -5.017,2.073 -1.37,1.383 -2.053,3.081 -2.053,5.095 0,2.006 0.684,3.699 2.053,5.082 1.369,1.383 3.041,2.074 5.017,2.074 l 0,0 z"
       id="path45"
       inkscape:connector-curvature="0"
       style="fill:#ffffff" /><path
       d="m 139.838,41.994 1.223,0 0,8.852 c 0,2.425 -0.615,4.295 -1.845,5.611 -1.23,1.317 -2.823,1.975 -4.778,1.975 -1.947,0 -3.536,-0.65 -4.767,-1.951 -1.23,-1.302 -1.845,-3.082 -1.845,-5.344 l 0,-9.143 1.233,0 0,9.096 c 0,1.937 0.5,3.45 1.5,4.543 1,1.091 2.293,1.638 3.878,1.638 1.601,0 2.899,-0.552 3.899,-1.656 1,-1.104 1.501,-2.669 1.501,-4.699 l 0,-8.922 0.001,0 z"
       id="path47"
       inkscape:connector-curvature="0"
       style="fill:#ffffff" /><polygon
       points="145.544,44.037 145.544,58.223 144.322,58.223 144.322,41.994 145.356,41.994 157.352,56.178 157.352,41.994 158.575,41.994 158.575,41.994 158.575,58.223 157.568,58.223 "
       id="polygon49"
       style="fill:#ffffff" /><polygon
       points="167.62,58.223 166.386,58.223 166.386,43.039 160.454,43.039 160.454,41.994 173.553,41.994 173.553,41.994 173.553,43.039 167.62,43.039 "
       id="polygon51"
       style="fill:#ffffff" /></g></svg>