<?xml version="1.0" encoding="UTF-8" standalone="no"?>
<svg
   xmlns:dc="http://purl.org/dc/elements/1.1/"
   xmlns:cc="http://creativecommons.org/ns#"
   xmlns:rdf="http://www.w3.org/1999/02/22-rdf-syntax-ns#"
   xmlns:svg="http://www.w3.org/2000/svg"
   xmlns="http://www.w3.org/2000/svg"
   xmlns:sodipodi="http://sodipodi.sourceforge.net/DTD/sodipodi-0.dtd"
   xmlns:inkscape="http://www.inkscape.org/namespaces/inkscape"
   viewBox="0 0 48 48"
   id="svg2"
   version="1.1"
   inkscape:version="0.91 r13725"
   sodipodi:docname="happy.svg">
  <metadata
     id="metadata23">
    <rdf:RDF>
      <cc:Work
         rdf:about="">
        <dc:format>image/svg+xml</dc:format>
        <dc:type
           rdf:resource="http://purl.org/dc/dcmitype/StillImage" />
        <dc:title></dc:title>
      </cc:Work>
    </rdf:RDF>
  </metadata>
  <sodipodi:namedview
     pagecolor="#ffffff"
     bordercolor="#666666"
     borderopacity="1"
     objecttolerance="10"
     gridtolerance="10"
     guidetolerance="10"
     inkscape:pageopacity="0"
     inkscape:pageshadow="2"
     inkscape:window-width="1165"
     inkscape:window-height="692"
     id="namedview21"
     showgrid="false"
     inkscape:zoom="4.9166667"
     inkscape:cx="20.684584"
     inkscape:cy="21.506361"
     inkscape:window-x="0"
     inkscape:window-y="24"
     inkscape:window-maximized="0"
     inkscape:current-layer="svg2" />
  <defs
     id="defs4">
    <linearGradient
       id="0"
       gradientUnits="userSpaceOnUse"
       y1="653.96"
       x2="0"
       y2="301.3"
       gradientTransform="matrix(0.13837231,0,0,0.13837231,69.093696,-42.225572)">
      <stop
         stop-color="#c52828"
         id="stop7" />
      <stop
         offset="1"
         stop-color="#ff5454"
         id="stop9" />
    </linearGradient>
  </defs>
  <circle
     style="fill:#f6921d;fill-opacity:1"
     id="circle13"
     r="24.000677"
     cy="24.020172"
     cx="23.999542" />
  <path
     style="fill:#ffffff;fill-opacity:1"
     d="m 12.71841,15.705073 c 0,-1.857231 1.506484,-3.36084 3.36084,-3.36084 1.854355,0 3.360839,1.506484 3.360839,3.36084 0,1.857231 -1.506484,3.363715 -3.360839,3.363715 -1.857231,0 -3.36084,-1.506484 -3.36084,-3.363715 m 15.243091,0 c 0,-1.857231 1.506484,-3.36084 3.363714,-3.36084 1.854356,0 3.36084,1.506484 3.36084,3.36084 0,1.857231 -1.503609,3.363715 -3.36084,3.363715 -1.85723,0 -3.363714,-1.506484 -3.363714,-3.363715"
     id="path17"
     inkscape:connector-curvature="0" />
  <path
     style="fill:#ffffff;fill-opacity:1"
     d="M 36.166665,33.069892 C 34.082312,28.251442 29.203488,25.13785 23.73817,25.13785 c -5.586067,0 -10.493641,3.127967 -12.503245,7.972291 -0.344996,0.827992 0.04887,1.782482 0.876866,2.124603 0.204123,0.08337 0.413996,0.123624 0.623868,0.123624 0.638244,0 1.241987,-0.376621 1.50361,-1.003365 1.506484,-3.625337 5.23532,-5.965562 9.498901,-5.965562 4.168706,0 7.877417,2.3431 9.444276,5.968437 0.356496,0.825117 1.313861,1.204613 2.138978,0.848117 0.825116,-0.356497 1.204612,-1.313862 0.848116,-2.138978"
     id="path19"
     inkscape:connector-curvature="0" />
</svg>
