<?xml version="1.0" encoding="UTF-8" standalone="no"?>
<svg
   xmlns:dc="http://purl.org/dc/elements/1.1/"
   xmlns:cc="http://creativecommons.org/ns#"
   xmlns:rdf="http://www.w3.org/1999/02/22-rdf-syntax-ns#"
   xmlns:svg="http://www.w3.org/2000/svg"
   xmlns="http://www.w3.org/2000/svg"
   xmlns:sodipodi="http://sodipodi.sourceforge.net/DTD/sodipodi-0.dtd"
   xmlns:inkscape="http://www.inkscape.org/namespaces/inkscape"
   width="30"
   height="60"
   id="svg2"
   version="1.1"
   inkscape:version="0.91 r13725"
   sodipodi:docname="woman-icon.svg"
   inkscape:export-filename="/home/code4sa/Cirrus/code4sa/umibukela/umibukela/static/img/woman-icon.png"
   inkscape:export-xdpi="135"
   inkscape:export-ydpi="135">
  <metadata
     id="metadata18">
    <rdf:RDF>
      <cc:Work
         rdf:about="">
        <dc:format>image/svg+xml</dc:format>
        <dc:type
           rdf:resource="http://purl.org/dc/dcmitype/StillImage" />
        <dc:title></dc:title>
      </cc:Work>
    </rdf:RDF>
  </metadata>
  <defs
     id="defs16" />
  <sodipodi:namedview
     pagecolor="#ffffff"
     bordercolor="#666666"
     borderopacity="1"
     objecttolerance="10"
     gridtolerance="10"
     guidetolerance="10"
     inkscape:pageopacity="0"
     inkscape:pageshadow="2"
     inkscape:window-width="1366"
     inkscape:window-height="720"
     id="namedview14"
     showgrid="false"
     inkscape:zoom="4.6678903"
     inkscape:cx="17.931308"
     inkscape:cy="30.764483"
     inkscape:window-x="0"
     inkscape:window-y="24"
     inkscape:window-maximized="1"
     inkscape:current-layer="svg2"
     fit-margin-top="0"
     fit-margin-left="0"
     fit-margin-right="0"
     fit-margin-bottom="0"
     units="px"
     width="25in" />
  <g
     id="g4184"
     transform="matrix(0.10194492,0,0,0.10194492,1.6570673,0.83959631)">
    <circle
       id="circle4"
       r="46.545212"
       cy="46.58577"
       cx="130.9501" />
    <path
       id="path6"
       d="m 124.50539,388.15534 0,161.83399 c -0.24346,29.40221 -44.010414,29.40221 -44.397086,0 l 0,-161.83399 -57.286553,0 61.583037,-216.25572 -10.025144,0 L 38.57554,295.0651 C 29.524278,322.30474 -7.3109962,311.27714 1.3392857,282.17574 L 41.43986,148.98509 c 4.611576,-15.29544 23.8885,-42.30448 57.286572,-42.96472 l 30.075448,0 34.37196,0 c 32.43566,0.66024 51.79279,27.89844 57.28657,42.96472 l 40.1006,133.19065 c 8.1347,28.95816 -28.40842,40.84508 -37.23628,12.88936 l -35.8041,-123.16548 -11.45732,0 63.01524,216.25572 -58.71875,0 0,161.83399 c 0.4583,29.40221 -43.13678,29.25897 -42.96493,0 l 0,-161.83399 -12.88948,0 z"
       inkscape:connector-curvature="0" />
  </g>
</svg>
